<svg width="80" height="50" viewBox="0 0 80 50" fill="none" xmlns="http://www.w3.org/2000/svg">
<path d="M43.13 0.0689949L2.78499 24.82C0.883987 25.94 -0.0450131 27.196 0.000986862 28.586V32.353C0.0459869 33.743 0.996988 34.976 2.85299 36.052L22.821 47.284C22.9393 47.3509 23.0705 47.3919 23.2058 47.4043C23.3412 47.4166 23.4776 47.4 23.6061 47.3555C23.7345 47.3111 23.852 47.2398 23.9508 47.1464C24.0496 47.0531 24.1274 46.9397 24.179 46.814L28.662 36.254L19.153 31.008C18.8806 30.8704 18.6505 30.6617 18.487 30.404C18.3648 30.2119 18.2832 29.9969 18.2472 29.7721C18.2111 29.5473 18.2215 29.3176 18.2775 29.0969C18.3335 28.8763 18.434 28.6694 18.5729 28.489C18.7117 28.3086 18.886 28.1586 19.085 28.048L36.54 17.623L43.741 0.539995C43.7701 0.459779 43.7728 0.372352 43.7487 0.29049C43.7246 0.208628 43.6749 0.136622 43.607 0.0849949C43.539 0.0326479 43.4563 0.00294738 43.3706 7.70023e-05C43.2848 -0.00279337 43.2003 0.0213111 43.129 0.0689949H43.13Z" fill="#19223C"/>
<path d="M77.1 13.573L57.077 1.93701C56.9609 1.86816 56.8319 1.82392 56.698 1.80704C56.5642 1.79016 56.4282 1.80101 56.2987 1.8389C56.1692 1.87679 56.0488 1.94092 55.9451 2.0273C55.8415 2.11368 55.7567 2.22046 55.696 2.34101L51.001 12.901L60.529 18.348C60.803 18.492 61.032 18.706 61.192 18.967C61.3507 19.2263 61.4348 19.5245 61.4348 19.8285C61.4348 20.1326 61.3507 20.4307 61.192 20.69C61.032 20.95 60.803 21.164 60.529 21.308L42.646 31.396L35.051 48.346C35.015 48.3854 34.9873 48.4316 34.9695 48.4819C34.9517 48.5323 34.9442 48.5857 34.9475 48.6389C34.9507 48.6922 34.9647 48.7443 34.9885 48.792C35.0123 48.8398 35.0454 48.8823 35.086 48.917C35.169 48.9887 35.2766 49.0253 35.3862 49.0192C35.4957 49.013 35.5985 48.9645 35.673 48.884L48.792 41.284L53.97 48.413C54.084 48.579 54.238 48.715 54.419 48.809C54.599 48.902 54.801 48.951 55.006 48.951H67.434C67.659 48.951 67.88 48.892 68.074 48.78C68.267 48.667 68.425 48.505 68.532 48.312C68.638 48.1192 68.6882 47.9008 68.6771 47.6811C68.666 47.4614 68.5939 47.2491 68.469 47.068L60.046 34.692L77.1 24.805C79.033 23.685 80 22.429 80 21.039V17.339C80 15.949 79.033 14.694 77.1 13.573V13.573Z" fill="#67A4AC"/>
</svg>
